<?xml version="1.0" encoding="UTF-8" standalone="no"?>
<!-- Created with Inkscape (http://www.inkscape.org/) -->

<svg
   width="64"
   height="64"
   viewBox="0 0 64 64"
   version="1.1"
   id="svg1"
   inkscape:version="1.4.3 (0d15f75042, 2025-12-25)"
   sodipodi:docname="revambase-logo.svg"
   xml:space="preserve"
   xmlns:inkscape="http://www.inkscape.org/namespaces/inkscape"
   xmlns:sodipodi="http://sodipodi.sourceforge.net/DTD/sodipodi-0.dtd"
   xmlns="http://www.w3.org/2000/svg"
   xmlns:svg="http://www.w3.org/2000/svg"><sodipodi:namedview
     id="namedview1"
     pagecolor="#505050"
     bordercolor="#eeeeee"
     borderopacity="1"
     inkscape:showpageshadow="0"
     inkscape:pageopacity="0"
     inkscape:pagecheckerboard="0"
     inkscape:deskcolor="#505050"
     inkscape:document-units="px"
     showgrid="true"
     inkscape:zoom="8.3854167"
     inkscape:cx="19.915528"
     inkscape:cy="26.534161"
     inkscape:window-width="1920"
     inkscape:window-height="1014"
     inkscape:window-x="0"
     inkscape:window-y="0"
     inkscape:window-maximized="1"
     inkscape:current-layer="layer1"><inkscape:grid
       id="grid1"
       units="px"
       originx="0"
       originy="0"
       spacingx="1"
       spacingy="1"
       empcolor="#0099e5"
       empopacity="0.30196078"
       color="#0099e5"
       opacity="0.14901961"
       empspacing="5"
       enabled="true"
       visible="true" /></sodipodi:namedview><defs
     id="defs1"><clipPath
       clipPathUnits="userSpaceOnUse"
       id="clipPath13"><path
         style="fill:#ffffff;stroke:none;stroke-width:4;stroke-linecap:round;stroke-linejoin:round;stroke-dasharray:none;stroke-opacity:1;paint-order:stroke fill markers"
         d="m 14,25 c 0,0 4,-5 10,-5 6,0 10,5 10,5 0,0 -4,5 -10,5 -6,0 -10,-5 -10,-5 z"
         id="path13"
         sodipodi:nodetypes="czczc" /></clipPath></defs><g
     inkscape:label="Layer 1"
     inkscape:groupmode="layer"
     id="layer1"><path
       id="path2-1-9"
       style="fill:#48246d;stroke:#48246d;stroke-width:2;stroke-linecap:round;stroke-linejoin:miter;stroke-opacity:1;paint-order:stroke fill markers"
       d="m 4,51 v 1 8 1 h 2 v -1 -2 h 1 v 2 1 H 9 V 60 58 57 L 8.7226563,56.722656 C 8.8801076,56.5747 9,56.347296 9,56 V 55 54 53 C 9,51 7,51 7,51 Z m 33,1 v 1 7 1 h 3 c 0,0 2,0 2,-2 v -1 -1 -1 c 0,-2 -2,-2 -2,-2 H 39 V 53 52 Z M 6,54 h 1 v 1 H 6 Z m 6,0 c 0,0 -2,0 -2,2 v 1 2 1 c 0,1 1,1 1,1 h 2 v -1 -1 h 2 v -1 -1 -1 c 0,-2 -2,-2 -2,-2 z m 4,0 v 1 2 1 l 3,3 h 2 v -1 -5 -1 h -2 v 1 2 h -1 v -2 -1 z m 8,0 c -2,0 -2,2 -2,2 v 1 1 1 c 0,0 0,2 2,2 h 3 v -1 -5 -1 z m 4,0 v 1 5 1 h 2 v -1 -3 h 1 v 3 1 h 2 v -1 -3 h 1 v 3 1 h 2 v -1 -3 -1 c 0,0 0,-2 -2,-2 z m 17,0 c -2,0 -2,2 -2,2 v 1 1 1 c 0,0 0,2 2,2 h 3 v -1 -5 -1 z m 6,0 c -2,0 -2,2 -2,2 v 1 1 1 1 1 h 3 c 2,0 2,-2 2,-2 v -1 -1 -1 -1 -1 z m 6,0 c 0,0 -2,0 -2,2 v 1 2 1 c 0,1 1,1 1,1 h 2 v -1 -1 h 2 v -1 -1 -1 c 0,-2 -2,-2 -2,-2 z m -33,3 h 1 v 1 h -1 z m 15,0 h 1 v 1 h -1 z m 6,0 h 1 v 1 h -1 z" /><path
       id="path2-1"
       style="fill:#d062c8;stroke:none;stroke-width:2;stroke-linecap:round;stroke-linejoin:round;paint-order:stroke fill markers"
       d="m 4,52 v 9 h 2 v -3 h 1 v 3 H 9 V 58 L 8,57 c 0,0 1,0 1,-1 V 54 C 9,52 7,52 7,52 Z m 33,1 v 8 h 3 c 0,0 2,0 2,-2 v -2 c 0,-2 -2,-2 -2,-2 H 39 V 53 Z M 6,54 h 1 v 2 H 6 Z m 6,1 c 0,0 -2,0 -2,2 v 3 c 0,1 1,1 1,1 h 2 v -1 h -1 v -1 h 3 v -2 c 0,-2 -2,-2 -2,-2 z m 4,0 v 3 l 3,3 h 2 v -6 h -2 v 3 h -1 v -3 z m 8,0 c -2,0 -2,2 -2,2 v 2 c 0,0 0,2 2,2 h 3 v -6 z m 4,0 v 6 h 2 v -4 h 1 v 4 h 2 v -4 h 1 v 4 h 2 v -4 c 0,0 0,-2 -2,-2 z m 17,0 c -2,0 -2,2 -2,2 v 2 c 0,0 0,2 2,2 h 3 v -6 z m 6,0 c -2,0 -2,2 -2,2 v 1 h 2 v 1 h -2 v 2 h 3 c 2,0 2,-2 2,-2 v -1 h -2 v -1 h 2 v -2 z m 6,0 c 0,0 -2,0 -2,2 v 3 c 0,1 1,1 1,1 h 2 v -1 h -1 v -1 h 3 v -2 c 0,-2 -2,-2 -2,-2 z m -45,2 h 1 v 1 h -1 z m 12,0 h 1 v 2 h -1 z m 15,0 h 1 v 2 h -1 z m 6,0 h 1 v 2 h -1 z m 12,0 h 1 v 1 h -1 z" /><path
       style="fill:#800000;stroke:#800000;stroke-width:8;stroke-linecap:round;stroke-linejoin:round;stroke-dasharray:none;stroke-opacity:1;paint-order:stroke fill markers"
       d="m 16,30 v -8 h 32 v 8 z"
       id="path3-3"
       sodipodi:nodetypes="ccccc" /><path
       style="opacity:1;fill:#881c00;stroke:#881c00;stroke-width:8;stroke-linecap:round;stroke-linejoin:round;stroke-dasharray:none;stroke-opacity:1;paint-order:stroke fill markers"
       d="m 16,30 v -8 h 32 v 8 z"
       id="path3"
       sodipodi:nodetypes="ccccc" /><rect
       style="opacity:1;fill:none;stroke:#d63e00;stroke-width:2;stroke-linecap:round;stroke-linejoin:round;stroke-dasharray:none;stroke-opacity:1;paint-order:stroke fill markers"
       id="rect10"
       width="40"
       height="16"
       x="12"
       y="18"
       ry="4" /><path
       style="opacity:1;fill:#303543;fill-opacity:1;stroke:#303543;stroke-width:8;stroke-linecap:round;stroke-linejoin:round;stroke-dasharray:none;stroke-opacity:1;paint-order:stroke fill markers"
       d="M 20,10 V 29 H 44 V 10 l -4,4 H 24 Z"
       id="path5"
       sodipodi:nodetypes="ccccccc" /><path
       id="path6"
       style="baseline-shift:baseline;display:inline;overflow:visible;fill:none;stroke:#1c1f26;stroke-width:2;stroke-linecap:round;stroke-linejoin:round;stroke-dasharray:none;stroke-opacity:1;paint-order:stroke fill markers;enable-background:accumulate;stop-color:#000000"
       d="M 20,6 A 4.0004,4.0004 0 0 0 18.46875,6.3046875 4.0004,4.0004 0 0 0 16,10 v 19 a 4.0004,4.0004 0 0 0 4,4 h 24 a 4.0004,4.0004 0 0 0 4,-4 V 10 A 4.0004,4.0004 0 0 0 41.171875,7.171875 L 38.34375,10 H 25.65625 L 22.828125,7.171875 A 4.0004,4.0004 0 0 0 20,6 Z" /><path
       style="opacity:1;fill:#ff9244;fill-opacity:1;stroke:#ff9244;stroke-width:8;stroke-linecap:round;stroke-linejoin:round;stroke-dasharray:none;stroke-opacity:1;paint-order:stroke fill markers"
       d="M 16,30 H 48 L 44,42 H 20 Z"
       id="path1"
       sodipodi:nodetypes="ccccc" /><rect
       style="opacity:1;fill:#ffdd0b;fill-opacity:1;stroke:none;stroke-width:8;stroke-linecap:round;stroke-linejoin:round;stroke-dasharray:none;stroke-opacity:1;paint-order:stroke fill markers"
       id="rect3"
       width="6"
       height="6"
       x="22"
       y="16"
       ry="3" /><rect
       style="opacity:1;fill:#ffdd0b;fill-opacity:1;stroke:none;stroke-width:8;stroke-linecap:round;stroke-linejoin:round;stroke-dasharray:none;stroke-opacity:1;paint-order:stroke fill markers"
       id="rect4"
       width="6"
       height="6"
       x="36"
       y="16"
       ry="3" /><path
       style="opacity:1;fill:none;stroke:#ffffff;stroke-width:8;stroke-linecap:round;stroke-linejoin:round;stroke-dasharray:none;stroke-opacity:1;paint-order:stroke fill markers"
       d="m 28,34 4,4 4,-4"
       id="path4"
       sodipodi:nodetypes="ccc" /><path
       id="path10"
       style="baseline-shift:baseline;display:inline;overflow:visible;fill:none;stroke:#d63e00;stroke-width:2;stroke-linecap:round;stroke-linejoin:round;stroke-dasharray:none;stroke-opacity:1;paint-order:stroke fill markers;enable-background:accumulate;stop-color:#000000"
       d="m 16,26 c -2.730533,8.8e-5 -4.65852,2.675257 -3.794922,5.265625 l 4,12 C 16.749909,44.8987 18.278438,46.00006 20,46 h 24 c 1.614297,-3.7e-4 3.070181,-0.97096 3.691406,-2.460938 l 4,-12 C 52.789164,28.904537 50.854084,26.000893 48,26 Z"
       sodipodi:nodetypes="ccccccccc" /><path
       style="opacity:1;fill:#d63e00;fill-opacity:1;stroke:#d63e00;stroke-width:2;stroke-linecap:round;stroke-linejoin:round;stroke-dasharray:none;stroke-opacity:1;paint-order:stroke fill markers"
       d="m 15,37 h 6"
       id="path11" /><path
       style="opacity:1;fill:#d63e00;fill-opacity:1;stroke:#d63e00;stroke-width:2;stroke-linecap:round;stroke-linejoin:round;stroke-dasharray:none;stroke-opacity:1;paint-order:stroke fill markers"
       d="m 43,37 h 6"
       id="path12"
       sodipodi:nodetypes="cc" /><path
       style="opacity:1;fill:#d63e00;fill-opacity:1;stroke:#d63e00;stroke-width:2;stroke-linecap:round;stroke-linejoin:round;stroke-dasharray:none;stroke-opacity:1;paint-order:stroke fill markers"
       d="m 16,41 h 8"
       id="path14"
       sodipodi:nodetypes="cc" /><path
       style="fill:#d63e00;fill-opacity:1;stroke:#d63e00;stroke-width:2;stroke-linecap:round;stroke-linejoin:round;stroke-dasharray:none;stroke-opacity:1;paint-order:stroke fill markers"
       d="M 48,41 H 40"
       id="path14-0"
       sodipodi:nodetypes="cc" /><path
       id="path2"
       style="fill:#ffffff;stroke:none;stroke-width:2;stroke-linecap:round;stroke-linejoin:round;paint-order:stroke fill markers"
       d="m 4,51 v 9 h 2 v -3 h 1 v 3 H 9 V 57 L 8,56 c 0,0 1,0 1,-1 V 53 C 9,51 7,51 7,51 Z m 2,2 h 1 v 2 H 6 Z" /><path
       id="path7"
       style="fill:#ffffff;stroke:none;stroke-width:2;stroke-linecap:round;stroke-linejoin:round;paint-order:stroke fill markers"
       d="m 12,54 c 0,0 -2,0 -2,2 0,1 0,2 0,3 0,1 1,1 1,1 h 2 v -1 h -1 v -1 h 3 c 0,0 0,-1.333333 0,-2 0,-2 -2,-2 -2,-2 z m 0,2 h 1 v 1 h -1 z"
       sodipodi:nodetypes="cssccccccsccccccc" /><path
       id="path7-6"
       style="fill:#ffffff;stroke:none;stroke-width:2;stroke-linecap:round;stroke-linejoin:round;paint-order:stroke fill markers"
       d="m 57,54 c 0,0 -2,0 -2,2 0,1 0,2 0,3 0,1 1,1 1,1 h 2 v -1 h -1 v -1 h 3 c 0,0 0,-1.333333 0,-2 0,-2 -2,-2 -2,-2 z m 0,2 h 1 v 1 h -1 z"
       sodipodi:nodetypes="cssccccccsccccccc" /><path
       style="fill:#ffffff;stroke:none;stroke-width:2;stroke-linecap:round;stroke-linejoin:round;paint-order:stroke fill markers"
       d="m 16,57 3,3 h 2 v -6 h -2 v 3 h -1 v -3 h -2 z"
       id="path8" /><path
       id="path9"
       style="fill:#ffffff;stroke:none;stroke-width:2;stroke-linecap:round;stroke-linejoin:round;paint-order:stroke fill markers"
       d="m 24,54 c -2,0 -2,2 -2,2 v 2 c 0,0 0,2 2,2 1,0 3,0 3,0 v -6 c 0,0 -2,0 -3,0 z m 0,2 h 1 v 2 h -1 z"
       sodipodi:nodetypes="sccsccsccccc" /><path
       id="path9-2"
       style="fill:#ffffff;stroke:none;stroke-width:2;stroke-linecap:round;stroke-linejoin:round;paint-order:stroke fill markers"
       d="m 45,54 c -2,0 -2,2 -2,2 v 2 c 0,0 0,2 2,2 1,0 3,0 3,0 v -6 c 0,0 -2,0 -3,0 z m 0,2 h 1 v 2 h -1 z"
       sodipodi:nodetypes="sccsccsccccc" /><path
       style="fill:#ffffff;stroke:none;stroke-width:2;stroke-linecap:round;stroke-linejoin:round;paint-order:stroke fill markers"
       d="m 28,54 v 6 h 2 v -4 h 1 v 4 h 2 v -4 h 1 v 4 h 2 v -4 c 0,0 0,-2 -2,-2 -2,0 -6,0 -6,0 z"
       id="path15"
       sodipodi:nodetypes="ccccccccccccsc" /><path
       id="path16"
       style="fill:#ffffff;stroke:none;stroke-width:2;stroke-linecap:round;stroke-linejoin:round;paint-order:stroke fill markers"
       d="m 37,52 v 8 h 3 c 0,0 2,0 2,-2 v -2 c 0,-2 -2,-2 -2,-2 h -1 v -2 z m 2,4 h 1 v 2 h -1 z"
       sodipodi:nodetypes="cccssccccccccc" /><path
       style="fill:#ffffff;stroke:none;stroke-width:2;stroke-linecap:round;stroke-linejoin:round;paint-order:stroke fill markers"
       d="m 49,56 c 0,0 0,-2 2,-2 1,0 3,0 3,0 v 2 h -2 v 1 h 2 v 1 c 0,0 0,2 -2,2 -1,0 -3,0 -3,0 v -2 h 2 v -1 h -2 z"
       id="path17"
       sodipodi:nodetypes="csccccccscccccc" /></g></svg>
